<?xml version="1.0" encoding="UTF-8"?>
<svg id="Layer_2" data-name="Layer 2" xmlns="http://www.w3.org/2000/svg" viewBox="0 0 110.33 78.77">
  <defs>
    <style>
      .cls-1 {
        fill: #ffedd9;
      }
    </style>
  </defs>
  <g id="Layer_1-2" data-name="Layer 1">
    <g>
      <path class="cls-1" d="M85.07,63.09c-9.84,13.06-27.24,19.09-43.66,13.74-16.42-5.35-26.93-20.47-27.18-36.82,1.99,1.25,4.12,2.49,6.37,3.71,1.08,8.44,5.41,16.23,12.09,21.6,0,0,0,0,0,0,.08.07.16.14.25.2,0,0,0,0,0,0,.16.11.34.2.54.26,1.13.37,2.35-.25,2.72-1.39.28-.85,0-1.74-.63-2.3,0,0,0,0,0,0-.05-.04-.1-.08-.15-.12,0,0-.01,0-.02-.01-5-4.02-8.49-9.6-9.97-15.76,6.92,3.39,14.72,6.52,22.95,9.21,8.13,2.65,16.17,4.69,23.67,6.03,1.83.33,3.62.61,5.37.86,2.64.36,5.19.63,7.63.8Z"/>
      <path class="cls-1" d="M32.95,65.52c-.09-.06-.17-.13-.25-.2.08.07.17.13.25.2Z"/>
      <path class="cls-1" d="M107.35,42.7c-2.22-2.9-5.66-5.95-10.24-9.08-.02-.02-.05-.03-.07-.05l-.5,6.41c6.88,5.18,8.77,9,8.18,10.79-.62,1.9-4.83,4-14.59,3.9-.07,0-.14,0-.22,0-.41,0-.84-.01-1.27-.03-1.79-.06-3.65-.18-5.59-.37-1.49-.14-3.03-.33-4.6-.55-8.39-1.17-17.8-3.4-27.38-6.52-9.69-3.16-18.69-6.95-26.22-10.99-1.4-.75-2.74-1.51-4.03-2.28-1.58-.94-3.08-1.89-4.49-2.85-.36-.24-.71-.49-1.04-.73-.37-.26-.72-.52-1.06-.77-7.22-5.34-9.2-9.27-8.6-11.11.65-2,5.25-4.21,16.08-3.87.04,0,.09,0,.14,0,.37.01.74.03,1.12.05-.78.97-1.52,1.98-2.22,3.03-1.9,2.87-3.44,6.05-4.56,9.48.59.43,1.22.88,1.9,1.35,1.09.74,2.24,1.49,3.45,2.22,1.24.76,2.53,1.51,3.88,2.25,7.53,4.15,16.7,8.04,26.61,11.27,9.81,3.2,19.41,5.44,27.87,6.54h0c.04-.1.08-.19.12-.29.08-.19.16-.39.23-.58.04-.09.07-.19.11-.28.15-.4.29-.8.42-1.21l.03-.11c.03-.1.06-.2.09-.3,0-.01,0-.02.01-.04,0,0,0-.01,0-.02,0,0,0,0,0,0,.03-.11.06-.21.1-.32.01-.03.02-.07.03-.1.02-.08.05-.16.07-.23,0-.03.02-.06.03-.1.02-.09.05-.17.07-.26,0-.03.01-.05.02-.08.02-.09.05-.18.07-.27,0-.01,0-.02,0-.03,0-.02,0-.03.01-.05,0-.02.01-.04.02-.06.02-.09.04-.18.07-.26,0,0,0-.02,0-.02.02-.1.05-.2.07-.29,0-.04.02-.08.03-.12.02-.08.04-.16.05-.24,0-.03.01-.05.02-.08,0-.01,0-.02,0-.03.02-.08.03-.15.05-.23.01-.05.02-.1.03-.14,0-.01,0-.02,0-.03.01-.07.03-.13.04-.2.06-.34.12-.69.17-1.03,0-.03,0-.07.02-.1.03-.22.06-.45.09-.67.01-.08.02-.16.03-.24,0-.01,0-.02,0-.04,0-.04,0-.09.01-.13.01-.13.03-.26.04-.39.02-.18.03-.35.04-.53,0-.06,0-.11.01-.17,0-.08.01-.16.02-.24,0-.06,0-.13.01-.19,0-.08,0-.15.01-.23,0-.1,0-.19.01-.29t0,0c0-.07,0-.15,0-.22,0-.07,0-.15,0-.22v-.03c0-.06,0-.11,0-.17,0,0,0-.02,0-.03,0-.05,0-.1,0-.15,0,0,0,0,0-.01,0-.03,0-.06,0-.09,0,0,0,0,0-.01,0-.11,0-.22,0-.33,0-.03,0-.06,0-.08,0,0,0-.01,0-.02,0,0,0,0,0,0,0-.06,0-.11,0-.17,0-.01,0-.02,0-.04,0-.07,0-.14,0-.2,0-.26-.02-.52-.03-.77,0-.01,0-.03,0-.04,0-.09,0-.18-.02-.27,0-.08,0-.15-.02-.23,0,0,0-.01,0-.02,0-.06,0-.12-.01-.18,0,0,0,0,0,0,0-.09-.01-.17-.02-.26-.01-.13-.02-.27-.04-.4,0-.08-.02-.16-.02-.24,0,0,0-.01,0-.02,0-.09-.02-.17-.03-.26-.01-.11-.03-.23-.04-.34,0-.06-.02-.13-.03-.19-.01-.09-.03-.19-.04-.28-.02-.11-.03-.22-.05-.33-.04-.23-.08-.47-.12-.7-.02-.09-.04-.19-.05-.28,0-.03-.01-.05-.02-.08-.02-.08-.03-.16-.05-.24,0-.01,0-.03,0-.04-.01-.06-.03-.12-.04-.18,0-.03-.01-.05-.02-.08-.01-.06-.02-.11-.04-.17-.02-.07-.03-.14-.05-.21-.01-.06-.03-.12-.04-.18,0-.01,0-.03-.01-.04-.02-.07-.03-.13-.05-.2-.02-.08-.04-.17-.06-.25-.04-.15-.08-.3-.12-.45-.02-.08-.04-.15-.06-.23-.01-.05-.03-.1-.04-.14-.02-.07-.04-.13-.06-.2-.06-.2-.12-.41-.19-.61,0-.02,0-.03-.02-.05,0,0,0,0,0-.01-.01-.03-.02-.07-.03-.11-.06-.17-.11-.34-.17-.51-.02-.04-.03-.09-.05-.13-.04-.1-.07-.2-.11-.3,0-.01,0-.03-.01-.04-.03-.09-.07-.18-.1-.26-.08-.21-.17-.43-.25-.64-.04-.11-.09-.21-.13-.32-.03-.07-.06-.14-.09-.2,0,0,0-.02-.01-.03-.03-.07-.06-.13-.09-.2-.03-.07-.06-.14-.09-.21-.05-.1-.1-.21-.14-.31-.05-.1-.1-.21-.15-.31-.15-.31-.3-.62-.46-.92-.05-.09-.1-.18-.14-.27,0-.01-.02-.03-.02-.04-.05-.1-.1-.19-.16-.29,0,0,0-.01,0-.02-.05-.09-.1-.17-.15-.26-.13-.22-.26-.44-.39-.66-.05-.08-.09-.15-.14-.23,0-.02-.02-.03-.03-.05-.05-.08-.1-.16-.15-.23-.02-.03-.03-.05-.05-.08-.05-.08-.11-.17-.16-.25-.06-.1-.13-.19-.19-.29-.06-.08-.11-.17-.17-.25-.03-.04-.05-.08-.08-.12,0,0,0,0,0-.01-.02-.03-.04-.07-.07-.1,0,0,0,0,0-.01-.04-.05-.07-.1-.11-.15-.04-.06-.08-.12-.13-.18-.02-.03-.05-.07-.07-.1-.1-.14-.21-.28-.31-.42-.03-.04-.07-.09-.1-.13-.1-.14-.21-.27-.32-.41-.03-.04-.07-.08-.1-.13,0,0,0,0,0,0-.06-.07-.11-.14-.17-.21-.07-.09-.15-.18-.22-.27-.15-.18-.3-.35-.45-.52-.06-.07-.12-.13-.18-.2,0,0,0-.01-.01-.02-.03-.03-.06-.07-.09-.1,0,0-.01-.02-.02-.02-.04-.05-.09-.09-.13-.14-.05-.06-.11-.12-.17-.18-.04-.05-.09-.09-.13-.14-.05-.05-.1-.11-.15-.16-.06-.06-.12-.12-.18-.19-.03-.03-.06-.06-.09-.09-.03-.03-.06-.06-.09-.09-.04-.04-.07-.07-.11-.11-.04-.04-.07-.07-.11-.11-.14-.14-.29-.28-.44-.42-.03-.03-.05-.05-.08-.08-.05-.04-.1-.09-.14-.13-.06-.06-.13-.12-.19-.18-.06-.05-.11-.1-.17-.15,0,0,0,0,0,0-.07-.06-.14-.13-.21-.19-.09-.08-.18-.15-.27-.23-.18-.15-.36-.3-.54-.45-.08-.06-.16-.13-.23-.19-.08-.07-.17-.13-.25-.19-.07-.05-.14-.11-.21-.16-.15-.11-.3-.22-.45-.33-.07-.05-.14-.1-.21-.15,0,0,0,0,0,0-.06-.05-.13-.09-.19-.14-.07-.05-.15-.1-.22-.15-.15-.1-.29-.2-.44-.3-.04-.02-.07-.05-.11-.07-.04-.02-.07-.05-.11-.07-.07-.05-.15-.1-.22-.14-.15-.09-.3-.19-.45-.28-.06-.04-.12-.07-.18-.11-.05-.03-.1-.06-.15-.09-.04-.02-.08-.05-.12-.07-.17-.1-.33-.19-.5-.28-.04-.02-.08-.04-.12-.06-.05-.03-.11-.06-.16-.09-.05-.03-.1-.05-.15-.08-.01,0-.03-.01-.04-.02-.06-.03-.12-.07-.19-.1-.02,0-.03-.02-.05-.03-.1-.05-.2-.1-.3-.15-.11-.05-.22-.11-.32-.16-.06-.03-.12-.06-.18-.09-.01,0-.03-.01-.04-.02,0,0-.02,0-.03-.01,0,0,0,0,0,0-.04-.02-.08-.04-.12-.06-.18-.09-.37-.17-.55-.25-.03-.01-.06-.03-.09-.04-.01,0-.03-.01-.04-.02-.06-.03-.12-.05-.19-.08,0,0-.01,0-.02,0-.04-.02-.09-.04-.13-.06,0,0,0,0,0,0,0,0-.02,0-.03-.01,0,0,0,0,0,0-.07-.03-.13-.06-.2-.08-.11-.05-.23-.09-.34-.14-.07-.03-.15-.06-.23-.09,0,0-.02,0-.02,0-.06-.02-.12-.05-.18-.07-.14-.05-.29-.11-.43-.16-.14-.05-.29-.1-.44-.15-.07-.03-.15-.05-.22-.07-.07-.02-.15-.05-.22-.07-.04-.01-.07-.02-.11-.03-.04-.01-.08-.03-.13-.04-.05-.02-.1-.03-.16-.05-.02,0-.04-.01-.05-.02-.09-.03-.18-.05-.27-.08-.07-.02-.13-.04-.2-.06-.09-.03-.17-.05-.26-.07-.06-.02-.12-.03-.19-.05-.11-.03-.23-.06-.34-.09-.09-.02-.17-.04-.26-.07-.05-.01-.09-.02-.14-.03-.06-.02-.12-.03-.19-.05-.07-.02-.14-.03-.22-.05-.07-.02-.13-.03-.2-.04-.09-.02-.18-.04-.27-.06-.11-.02-.22-.05-.33-.07-.1-.01-.21-.03-.31-.06h0s-.07-.02-.1-.03c-.02,0-.04-.01-.07-.02-.02,0-.04-.02-.06-.02-.02,0-.04-.02-.06-.03,0,0,0,0-.01,0-.02,0-.03-.02-.05-.02-.02-.01-.05-.02-.07-.04-.02,0-.04-.02-.05-.03-.03-.02-.06-.03-.08-.05-.01,0-.02-.01-.03-.02-.02-.01-.04-.02-.06-.04-.02-.01-.04-.03-.06-.04-.02-.01-.04-.03-.05-.04-.02-.02-.04-.03-.06-.05-.02-.02-.04-.03-.06-.05-.04-.04-.08-.07-.12-.11-.02-.03-.05-.05-.07-.08-.02-.02-.03-.04-.05-.06-.01-.02-.02-.03-.04-.05-.02-.03-.04-.05-.06-.08-.05-.07-.09-.13-.13-.2-.02-.03-.03-.06-.05-.09-.01-.03-.03-.06-.04-.09-.02-.04-.03-.08-.05-.12,0-.02-.01-.04-.02-.06,0-.01,0-.02,0-.03,0-.01,0-.02,0-.03,0-.03-.02-.07-.03-.1,0-.03-.01-.05-.02-.08,0-.02,0-.05-.01-.07,0,0,0-.01,0-.02,0-.03,0-.05-.01-.08,0-.02,0-.04,0-.06,0-.05,0-.1,0-.15,0-.03,0-.06,0-.09,0-.02,0-.05,0-.07,0,0,0,0,0-.01,0-.03,0-.06,0-.09,0-.03,0-.06.01-.08,0-.01,0-.03,0-.04,0-.02,0-.03,0-.05,0-.02,0-.04.01-.06.01-.07.03-.14.06-.21,0-.03.02-.06.03-.09,0-.02.02-.04.02-.06,0,0,0,0,0,0,0-.01,0-.02.01-.03,0,0,0-.01,0-.02,0-.02.02-.04.03-.06,0,0,0,0,0,0,.01-.03.03-.06.04-.08,0,0,0,0,0,0,0,0,0,0,0-.01,0,0,0-.01,0-.02,0,0,0,0,0,0,0,0,0,0,0,0,.03-.05.06-.1.09-.15.02-.03.03-.05.05-.08,0,0,0,0,0-.01.02-.02.03-.05.05-.07.01-.02.03-.04.04-.05,0,0,0,0,0,0,0,0,.01-.01.02-.02.04-.04.08-.08.12-.13.02-.02.05-.04.07-.06.02-.02.05-.04.07-.06,0,0,0,0,0,0,.02-.01.03-.03.05-.04.02-.01.03-.03.05-.04.03-.02.06-.04.09-.06.02-.01.03-.02.05-.03,0,0,.02-.01.03-.02.02-.01.04-.02.06-.03,0,0,0,0,0,0,.01,0,.03-.02.05-.02,0,0,0,0,0,0,.03-.01.05-.03.08-.04.02-.01.05-.02.07-.03,0,0,.01,0,.02,0,.01,0,.02,0,.03-.01,0,0,.01,0,.02,0,.01,0,.03-.01.04-.02.05-.02.11-.04.17-.05.03,0,.06-.02.09-.02.03,0,.05-.01.08-.01.01,0,.03,0,.04,0,0,0,0,0,0,0,.02,0,.04,0,.05,0,.04,0,.08,0,.12-.01.03,0,.05,0,.08,0,.03,0,.06,0,.09,0,0,0,0,0,0,0,.02,0,.05,0,.07,0,0,0,0,0,.01,0,0,0,.02,0,.03,0,0,0,0,0,.01,0,.02,0,.04,0,.07,0,0,0,0,0,0,0,.03,0,.06,0,.09.01,0,0,0,0,0,0,.06,0,.13.02.19.04,1.29.26,2.58.59,3.86,1.01.12.04.24.08.36.12.09.03.19.06.28.1.06.02.11.04.17.06.09.03.19.07.28.1.09.03.19.07.28.1.01,0,.03,0,.04.01.08.03.16.06.24.09.09.04.18.07.28.11.02,0,.04.02.07.03.02,0,.04.02.07.03.02,0,.03.01.05.02.1.04.19.08.29.12.06.03.13.05.19.08.06.03.13.05.19.08.06.03.13.05.19.08.08.03.16.07.24.11.08.04.16.07.24.11.08.04.16.07.24.11.08.04.16.07.24.11h0c.23.11.47.22.7.34.08.04.15.08.23.12.09.05.18.09.28.14.09.05.18.1.27.15.09.05.18.1.27.15.07.04.14.07.21.11.04.02.08.04.12.07.08.04.16.09.24.13.02.01.04.02.07.04.06.03.12.07.18.1.04.02.07.04.11.06.08.05.16.1.24.14.16.1.33.2.49.3.05.03.09.06.14.09.08.05.16.1.24.15l.04.03c.06.04.13.08.19.12.06.04.13.08.19.13.04.03.08.05.12.08.05.03.1.07.15.1.2.14.41.28.61.42.07.05.14.1.21.15,0,0,0,0,0,0,.07.05.14.1.21.15.09.07.18.14.28.21.05.04.11.08.16.12.21.16.43.33.64.5.1.08.19.16.29.23,0,0,.02.01.02.02.1.09.21.17.31.26.05.04.09.08.14.12.06.05.11.1.17.15.1.09.2.18.3.27.1.09.2.18.3.27.08.07.16.15.24.22.04.04.09.08.13.12.05.05.11.1.16.15.01,0,.02.02.03.03.02.02.03.03.05.05.02.02.04.03.05.05.06.06.12.11.18.17.12.11.23.23.35.35.08.08.17.17.25.25.09.09.17.18.26.27,0,.01.02.02.03.03.09.09.18.19.26.28.09.1.18.2.27.29.08.09.16.18.24.27.02.02.03.04.05.06.06.07.12.14.19.21.05.06.1.12.15.18.03.03.06.07.08.1.08.09.15.18.22.27.05.06.1.12.14.18,0,0,0,.01.02.02.06.08.13.16.19.23.06.07.12.15.17.22.02.02.03.04.04.06.06.08.12.15.18.23.02.03.05.06.07.09.02.03.05.06.07.09.13.17.26.34.39.52.03.04.06.08.08.12,0,0,0,.01.01.02.04.05.08.11.11.16,0,0,0,0,0,0,.05.06.09.13.14.19.13.19.27.39.4.58.06.08.11.17.17.25,0,.01.02.03.03.04.07.11.14.21.21.32.07.11.14.22.21.34.14.22.28.45.41.68.07.11.13.23.2.34,0,0,0,0,0,0,.07.11.13.23.19.34.06.11.13.23.19.35.06.12.13.23.19.35.05.09.09.17.14.26.02.03.03.06.05.1.06.11.12.23.17.34.05.1.1.2.15.31,0,0,0,0,0,0,0,.01.01.03.02.04,0,0,0,0,0,.01.04.09.09.18.13.27,0,0,0,0,0,0,.02.05.04.09.06.14,0,0,0,0,0,0,.03.07.06.14.09.2.03.06.05.11.08.17.03.07.07.15.1.22.01.03.03.06.04.09.04.09.08.19.12.28,0,0,0,.01,0,.02.02.04.03.07.05.11,0,0,0,.01,0,.02.03.07.06.14.09.21.02.04.04.09.05.13.04.09.08.18.11.27,0,.01,0,.02.01.03.05.11.09.23.13.34,0,.02.01.03.02.05.04.11.09.22.13.34.05.12.09.25.13.37.04.12.09.25.13.37.09.25.17.5.25.75.04.13.08.25.12.38.03.08.05.16.07.24.02.05.03.11.05.16.03.12.07.24.1.36.03.12.06.23.09.35,0,.03.02.06.02.09.02.08.04.16.06.24,0,.03.02.07.03.1.03.12.06.23.09.35,0,.01,0,.02,0,.04.02.1.05.2.07.3,0,.04.02.08.03.13.02.1.04.2.07.3,0,.03.01.06.02.09.02.11.04.21.06.32,0,0,0,.02,0,.03.03.13.05.25.07.38.03.13.05.26.07.39.02.11.04.23.06.34,0,0,0,.02,0,.03,0,.03.01.07.02.1,0,.03,0,.05.01.08.01.08.03.16.04.24,0,0,0,.02,0,.03.02.12.04.25.05.37.02.13.04.26.05.4.02.13.03.26.05.4.02.13.03.27.04.4.01.13.03.27.04.4,0,.1.02.21.03.32,0,.06,0,.12.01.19,0,.1.01.2.02.3,0,0,0,0,0,0,0,.13.02.26.02.4,0,.07,0,.13,0,.2,0,.07,0,.13,0,.2,0,.13,0,.27.01.4,0,.1,0,.2,0,.3,0,.1,0,.2,0,.3,0,.09,0,.18,0,.27,0,.05,0,.09,0,.14,0,.08,0,.16,0,.24,0,.05,0,.09,0,.14,0,.1,0,.19,0,.29,0,.12,0,.23-.01.35,0,.07,0,.14,0,.2,0,.14-.01.27-.02.41,0,.14-.02.27-.02.41,0,.08-.01.16-.02.24-.02.23-.04.46-.06.69,0,.06-.01.12-.02.19,0,.08-.02.17-.03.26,0,.09-.02.17-.03.26-.01.09-.02.18-.03.27,0,.05-.01.09-.02.14,0,.07-.02.14-.03.2,0,.07-.02.14-.03.2,0,.07-.02.14-.03.2-.01.08-.02.16-.04.25-.04.28-.09.55-.14.83,0,.04-.01.08-.02.11,0,.02,0,.04-.01.07-.02.13-.05.25-.07.38-.03.14-.05.27-.08.41-.01.07-.03.14-.04.2-.05.21-.09.42-.14.62-.03.12-.06.23-.09.35-.02.09-.04.17-.07.26-.04.14-.07.27-.11.41-.02.07-.04.14-.06.2-.07.26-.15.53-.23.79-.02.05-.03.11-.05.16-.01.05-.03.1-.05.14,0,.01,0,.03-.01.04-.02.07-.04.14-.07.21-.04.13-.08.25-.13.38-.04.13-.09.25-.13.38-.04.13-.09.25-.14.38-.05.12-.09.25-.14.37h0c1.51.13,2.97.22,4.38.26.82.03,1.59.04,2.33.03,1.04-3.19,1.65-6.42,1.86-9.63.93-17.64-9.97-34.38-27.53-40.13h-.02C53.49-1.92,41.13.29,31.53,6.78c-1.24.84-2.43,1.75-3.57,2.72-.35-.03-.7-.07-1.04-.1-1.74-.15-3.42-.26-5.05-.31-5.54-.17-10.12.26-13.62,1.3-4.25,1.26-6.9,3.41-7.87,6.37-.97,2.97-.09,6.26,2.6,9.78,2.2,2.88,5.61,5.91,10.13,9,.04.03.08.05.11.08.37.25.74.5,1.12.75,1.86,1.23,3.87,2.44,6,3.64,1.43.81,2.92,1.6,4.46,2.39,7.26,3.7,15.64,7.14,24.56,10.04,8.81,2.87,17.5,5.01,25.47,6.31,1.7.28,3.38.52,5.01.71,2.53.31,4.96.52,7.28.63.12,0,.24.01.35.02.33.01.66.03.99.04,5.54.17,10.13-.26,13.63-1.3,4.25-1.26,6.9-3.4,7.86-6.37.97-2.97.09-6.26-2.6-9.78ZM70.67,38.52s.02-.04.02-.07h0s.02-.04.02-.07c0-.02.02-.04.03-.06h0s.02-.04.03-.06c.02-.03.03-.07.05-.1.02-.04.05-.08.07-.12,0-.01.02-.03.03-.04,0-.01.02-.03.03-.04.01-.02.03-.04.04-.06.01-.02.03-.03.04-.05.02-.03.05-.06.07-.09.04-.04.07-.08.11-.12.01-.01.02-.02.04-.04.17-.16.36-.29.56-.39.01,0,.02-.01.04-.02.02,0,.04-.02.06-.03.03-.01.05-.02.08-.03.01,0,.02,0,.04-.01.02,0,.04-.02.06-.02.02,0,.05-.02.07-.02.02,0,.03,0,.05-.01.02,0,.04-.01.06-.02.01,0,.03,0,.04,0,.03,0,.07-.01.1-.02.03,0,.06-.01.1-.01,0,0,.01,0,.02,0,.02,0,.04,0,.06,0,.02,0,.04,0,.05,0,.01,0,.02,0,.03,0,.03,0,.05,0,.08,0,.02,0,.04,0,.06,0,0,0,0,0,0,0,.02,0,.04,0,.05,0,.02,0,.04,0,.06,0,.02,0,.03,0,.05,0,.02,0,.04,0,.05,0,.02,0,.04,0,.05,0,.06,0,.11.02.17.03.02,0,.03,0,.05.01.02,0,.04,0,.05.01.02,0,.04.01.06.02.02,0,.04.01.05.02.02,0,.04.01.05.02.02,0,.03.01.05.02.03.01.07.03.1.05.03.02.07.03.1.05.03.02.07.04.1.06.01,0,.03.02.04.03.03.02.06.04.09.06.01,0,.02.02.04.03,0,0,0,0,.01,0,.01,0,.02.02.04.03.01.01.03.02.04.03.01.01.03.02.04.03.03.02.05.05.08.07h0s.05.05.07.08c.02.03.05.05.07.08.02.02.04.04.05.07.03.03.05.07.08.1.02.03.04.06.06.09.02.03.04.06.05.09.02.03.03.06.05.09.05.09.09.19.12.29,0,.02.02.05.02.07,0,.03.02.06.02.09,0,.03.01.06.02.09,0,0,0,0,0,.01,0,.02,0,.04.01.07,0,.03.01.07.02.1,0,.03,0,.05,0,.08,0,0,0,.01,0,.02,0,.02,0,.05,0,.07,0,.03,0,.06,0,.09,0,0,0,0,0,0,0,.03,0,.05,0,.08,0,0,0,.02,0,.03,0,.02,0,.05,0,.07,0,.03,0,.06,0,.09,0,.02,0,.04,0,.06,0,.02,0,.03,0,.05,0,.04-.01.07-.02.11,0,.02,0,.03-.01.05,0,0,0,0,0,0,0,.04-.02.07-.03.11,0,.02-.01.04-.02.06,0,.02-.01.03-.02.05,0,.02-.01.04-.02.06,0,.02-.01.03-.02.05h0s-.03.07-.04.1c0,0,0,0,0,0,0,.01-.01.03-.02.04-.03.06-.06.11-.09.16-.02.03-.03.05-.05.08h0s-.04.06-.06.09c-.02.03-.04.06-.07.08-.01.02-.03.03-.04.05-.01.02-.03.03-.04.05-.05.06-.11.11-.17.16-.02.01-.03.03-.05.04,0,0,0,0,0,0-.01,0-.02.02-.04.03-.04.03-.07.05-.11.08-.02.01-.04.03-.06.04-.06.04-.12.08-.19.11-.02,0-.04.02-.06.03-.02,0-.04.02-.06.03-.02,0-.04.02-.06.03-.02,0-.04.02-.06.02-.05.02-.1.03-.14.05-.03.01-.07.02-.1.03-.1.03-.21.04-.32.05-.03,0-.07,0-.1,0-.15,0-.29,0-.44-.03-.03,0-.06-.01-.1-.02-.08-.02-.15-.04-.23-.06h0s-.07-.02-.1-.03c-.02,0-.04-.02-.06-.02-.03-.01-.07-.03-.1-.05-.07-.03-.13-.07-.19-.1-.01,0-.03-.02-.04-.02-.11-.07-.21-.15-.31-.23-.02-.02-.04-.04-.06-.06-.02-.02-.04-.03-.05-.05,0,0-.01-.02-.02-.02-.02-.02-.04-.05-.06-.07-.02-.02-.04-.04-.05-.06,0,0-.01-.02-.02-.02-.02-.02-.04-.05-.05-.07-.02-.03-.03-.05-.05-.08,0,0,0,0,0-.01-.02-.02-.03-.05-.05-.08,0,0,0,0,0,0-.02-.03-.03-.06-.05-.09-.02-.03-.03-.06-.05-.1s-.03-.06-.04-.1c-.01-.03-.03-.07-.04-.1-.03-.08-.05-.17-.07-.25,0-.03-.01-.07-.02-.1,0-.03,0-.06-.01-.09,0-.02,0-.04,0-.07,0-.04,0-.07,0-.11,0-.03,0-.06,0-.09,0-.02,0-.05,0-.07,0,0,0,0,0,0,0-.01,0-.03,0-.04,0,0,0,0,0-.01,0-.02,0-.04,0-.07,0-.03,0-.06,0-.08,0-.04.01-.08.02-.12,0-.03,0-.05.02-.08,0,0,0,0,0,0,0-.03.01-.05.02-.08,0,0,0-.01,0-.02,0-.03.02-.06.03-.09h0ZM67.77,28.43s.03-.07.04-.11c.03-.07.06-.14.09-.2s.07-.13.11-.19c.01-.02.02-.03.03-.04.03-.05.07-.09.11-.14.01-.02.03-.03.04-.05.01-.01.03-.03.04-.04.02-.02.04-.04.05-.06.02-.02.05-.05.08-.07,0,0,0,0,0,0,.02-.02.04-.03.06-.05.02-.02.04-.03.06-.05.03-.02.06-.04.08-.06t0,0c.06-.04.12-.08.18-.11.02,0,.03-.02.05-.03.02,0,.03-.02.05-.02.02-.01.04-.02.06-.03.06-.03.12-.05.18-.07.02,0,.04-.01.06-.02.06-.02.13-.04.19-.05.02,0,.04,0,.06-.01.07-.01.13-.03.2-.03.02,0,.05,0,.07,0,.08,0,.17,0,.25,0,.03,0,.05,0,.08,0,.02,0,.04,0,.06,0,.03,0,.06,0,.09.01.03,0,.06,0,.09.01.02,0,.04,0,.06.01.04,0,.07.02.11.03.02,0,.04,0,.05.01.02,0,.04.01.06.02.02,0,.04.01.05.02.04.01.07.03.11.04.03.01.07.03.1.05.03.02.07.03.1.05.05.03.09.05.14.08.02.01.05.03.07.05.02.02.05.03.07.05.03.02.06.04.08.07.01.01.03.02.04.03.02.02.04.03.06.05.06.06.12.11.17.18,0,0,.02.02.02.03.06.07.12.15.17.23.01.02.02.04.04.06.01.02.02.04.03.06.01.02.02.04.03.06.02.03.03.06.05.1,0,.02.02.04.03.07,0,.02.02.04.02.06.01.03.02.05.03.08,0,.02.02.05.02.07.03.09.05.19.07.28,0,.04.01.07.01.11.02.14.02.29,0,.44,0,.02,0,.03,0,.05,0,.05-.01.1-.02.15,0,.01,0,.03,0,.04,0,0,0,.02,0,.03,0,.03-.01.06-.02.08,0,0,0,.02,0,.03-.01.04-.02.08-.03.12,0,.03-.02.05-.03.08h0s-.02.05-.03.08c-.01.03-.03.07-.05.1-.02.04-.03.07-.05.11-.01.03-.03.05-.04.08,0,0,0,0,0,.01-.01.02-.03.04-.04.07-.01.02-.02.03-.03.05-.01.02-.02.03-.03.05-.01.02-.02.03-.04.05s-.02.03-.04.05c-.03.03-.05.06-.08.09-.03.03-.05.06-.08.08-.01.01-.03.03-.04.04s-.03.03-.04.04c-.01.01-.03.03-.04.04-.03.03-.06.05-.09.07-.02.02-.04.03-.06.04,0,0-.02.01-.03.02-.02.01-.04.03-.06.04-.06.04-.12.07-.18.11-.03.02-.06.03-.1.05-.08.04-.16.07-.25.09-.02,0-.05.01-.07.02,0,0-.02,0-.03,0-.03,0-.06.01-.09.02-.03,0-.06.01-.09.02-.03,0-.05,0-.08.01-.04,0-.07,0-.11.01-.03,0-.07,0-.1,0,0,0-.01,0-.02,0-.02,0-.04,0-.07,0-.03,0-.05,0-.08,0-.03,0-.07,0-.1,0-.02,0-.04,0-.05,0-.06,0-.12-.01-.17-.02-.03,0-.05-.01-.08-.02-.07-.02-.13-.03-.2-.06-.02,0-.04-.02-.07-.02h-.03s-.02-.02-.03-.03c-.01,0-.03-.01-.04-.02-.01,0-.02,0-.04-.02-.02,0-.04-.02-.06-.03-.08-.04-.15-.08-.22-.12-.03-.02-.06-.04-.09-.06-.03-.02-.06-.05-.1-.07-.02-.02-.04-.04-.07-.05,0,0-.02-.01-.02-.02-.01-.01-.03-.03-.04-.04-.01-.01-.03-.03-.04-.04-.01-.01-.03-.03-.04-.04-.07-.07-.13-.15-.19-.22-.02-.02-.03-.04-.05-.07-.05-.06-.09-.13-.12-.2,0-.02-.02-.03-.02-.05-.01-.02-.02-.05-.03-.07s-.02-.05-.03-.07h0s-.02-.05-.03-.07c0-.02-.02-.04-.02-.07,0,0,0,0,0,0-.01-.03-.02-.07-.03-.1-.05-.16-.07-.33-.08-.5,0-.02,0-.04,0-.06,0-.02,0-.05,0-.07,0-.04,0-.07,0-.11,0-.03,0-.05,0-.08,0-.03,0-.05,0-.08,0-.04.01-.07.02-.11.02-.09.04-.19.07-.28,0-.02.01-.04.02-.05ZM61.86,19.9c.02-.06.05-.13.08-.19.01-.03.03-.05.04-.08.04-.08.09-.16.15-.24.03-.04.05-.07.08-.11.01-.02.03-.04.04-.05.01-.02.03-.03.05-.05.02-.03.05-.05.07-.08.02-.02.05-.05.08-.07.03-.02.05-.05.08-.07.01-.01.03-.02.04-.03.03-.02.06-.04.08-.06.03-.02.06-.04.09-.06.01,0,.03-.02.04-.03.03-.02.06-.04.09-.05.02,0,.03-.02.05-.02.02,0,.03-.02.05-.02.03-.02.06-.03.1-.04.03-.01.06-.03.09-.04.03,0,.05-.02.08-.03.02,0,.05-.02.07-.02.02,0,.05-.01.07-.02.03,0,.06-.02.09-.02h0s.07-.01.1-.02c.04,0,.07-.01.11-.01.04,0,.07,0,.11,0h0s.07,0,.11,0c.05,0,.1,0,.15,0,.01,0,.03,0,.04,0,.01,0,.02,0,.03,0,.03,0,.06,0,.09,0,.01,0,.03,0,.04,0,.03,0,.06,0,.09.01.03,0,.06.01.09.02.02,0,.04.01.07.02.01,0,.02,0,.03,0,.03,0,.05.01.08.02h0s.05.02.07.03c.02,0,.05.02.07.03.02,0,.04.01.05.02.03.01.07.03.1.05.02.01.04.02.07.03.02,0,.03.02.05.03.01,0,.03.02.04.02.05.03.1.06.14.09.02.01.03.02.05.04.03.02.06.05.1.08.02.01.03.03.05.04.02.01.03.03.05.04,0,0,.02.02.03.02.02.02.04.04.05.05.01.02.03.03.04.05,0,0,0,0,0,.01.01.01.03.03.04.04.02.02.04.04.05.07.02.03.04.06.06.08.08.11.14.22.2.34,0,.02.02.04.03.06,0,.02.02.04.03.06.01.03.02.05.03.08,0,.01.01.03.01.04,0,.02.01.04.02.05,0,.02.01.04.02.05,0,.01,0,.03.01.04,0,.01,0,.03.01.04,0,.01,0,.02,0,.04,0,.02,0,.04.01.07,0,.03.01.06.01.09,0,0,0,.02,0,.03,0,.03,0,.05,0,.08,0,0,0,0,0,0,0,.03,0,.07,0,.1,0,0,0,0,0,0,0,.03,0,.07,0,.1,0,.09,0,.18-.02.27,0,.02,0,.04,0,.05,0,.01,0,.03,0,.04,0,.02,0,.04-.01.05,0,.02,0,.04-.01.06,0,.01,0,.02,0,.04,0,.02-.01.05-.02.07,0,.02-.01.04-.02.07h0s-.01.04-.02.06c0,.02-.02.05-.03.07,0,.02-.02.05-.03.07,0,0,0,.01,0,.02-.01.02-.02.05-.03.07-.01.02-.02.04-.03.06-.02.05-.05.09-.08.13,0,.02-.02.03-.03.05-.02.02-.03.05-.05.07,0,0,0,0,0,0-.02.02-.03.04-.05.06,0,0,0,.01-.01.02-.02.02-.03.04-.05.05-.04.05-.08.09-.13.14,0,.01-.02.02-.03.03-.01.01-.03.02-.04.04-.01.01-.02.02-.03.03-.01.01-.02.02-.04.03-.01.01-.03.02-.04.03-.01.01-.03.02-.04.03-.02.02-.05.04-.07.05,0,0,0,0,0,0-.03.02-.05.04-.08.05-.03.02-.06.04-.09.05-.03.02-.06.03-.09.05-.02.01-.04.02-.06.03-.02.01-.05.02-.07.03-.02,0-.04.02-.06.03,0,0,0,0,0,0-.02,0-.05.02-.07.03-.04.01-.08.03-.13.04-.01,0-.03,0-.04.01-.02,0-.04.01-.07.02-.02,0-.04,0-.06.01-.11.02-.22.04-.33.04-.03,0-.06,0-.09,0-.05,0-.11,0-.16,0-.02,0-.05,0-.07,0-.06,0-.12-.01-.18-.02-.01,0-.03,0-.04,0-.01,0-.03,0-.04,0-.05-.01-.11-.03-.16-.04-.01,0-.02,0-.03-.01h-.03s-.04-.02-.05-.03h0c-.05-.02-.11-.04-.16-.06h0s-.07-.03-.1-.05c-.03-.02-.07-.03-.1-.05-.01,0-.02-.01-.03-.02,0,0-.02,0-.02-.01-.03-.02-.05-.03-.07-.05-.08-.05-.15-.11-.22-.17-.02-.01-.03-.03-.05-.05-.04-.04-.08-.08-.12-.13-.02-.02-.03-.03-.05-.05-.04-.05-.08-.1-.12-.15,0,0-.01-.02-.02-.03-.02-.03-.05-.07-.07-.11-.01-.02-.02-.04-.03-.06-.02-.03-.03-.06-.05-.09-.02-.03-.03-.06-.05-.1,0-.02-.02-.04-.02-.05,0-.01-.01-.03-.02-.05-.02-.04-.03-.09-.05-.13,0-.02-.01-.04-.02-.06,0,0,0-.01,0-.02,0-.02-.01-.04-.02-.06,0-.03-.01-.05-.02-.08,0-.03-.01-.07-.02-.1,0-.02,0-.04,0-.05,0-.02,0-.03,0-.05,0-.02,0-.04,0-.06,0-.04,0-.07,0-.11,0-.03,0-.06,0-.09,0-.02,0-.04,0-.07,0-.02,0-.04,0-.05,0-.02,0-.04,0-.07,0-.04,0-.08.01-.11,0-.01,0-.02,0-.04,0,0,0-.01,0-.02,0-.02,0-.03,0-.05,0-.02,0-.05.02-.07,0-.03.01-.05.02-.08.01-.04.02-.08.03-.12,0-.03.02-.05.03-.08Z"/>
      <path class="cls-1" d="M63.03,22.68c.05.02.1.04.16.06-.05-.02-.11-.04-.16-.06Z"/>
      <path class="cls-1" d="M63.24,22.76s.05.01.07.02c-.02,0-.05-.01-.07-.02-.02,0-.04-.01-.05-.02.02,0,.04.01.05.02Z"/>
      <path class="cls-1" d="M63.31,22.78c.05.02.11.03.16.04-.05-.01-.11-.02-.16-.04Z"/>
      <path class="cls-1" d="M68.76,27.25c-.06.04-.12.07-.18.11.06-.04.12-.08.18-.11Z"/>
      <path class="cls-1" d="M57.25,8.49c-.02.07-.04.14-.06.21.01-.07.03-.14.06-.21,0-.03.02-.06.03-.09-.01.03-.02.06-.03.09Z"/>
      <path class="cls-1" d="M79.9,50.8c.04-.1.08-.19.12-.29-.04.1-.08.19-.12.29h0Z"/>
    </g>
  </g>
</svg>